<svg xmlns="http://www.w3.org/2000/svg" xmlns:xlink="http://www.w3.org/1999/xlink" height="260" viewBox="0 0 210 260" width="210"><linearGradient id="a"><stop offset="0" stop-color="#f5f5f5"/><stop offset="1" stop-color="#172241"/></linearGradient><linearGradient id="b" x1="49.962472%" x2="49.962472%" xlink:href="#a" y1="96.492114%" y2="5.278536%"/><linearGradient id="c" x1="49.940397%" x2="49.940397%" xlink:href="#a" y1=".717391%" y2="100.521739%"/><linearGradient id="d" x1="-.194701%" x2="99.805932%" y1="50.040595%" y2="50.040595%"><stop offset=".042" stop-color="#fc4042"/><stop offset="1" stop-color="#fd7978"/></linearGradient><linearGradient id="e" x1=".083706%" x2="99.94385%" y1="49.839841%" y2="49.839841%"><stop offset="0" stop-color="#2249d8"/><stop offset=".791" stop-color="#2a6ed6"/></linearGradient><g fill="none" fill-rule="evenodd"><path d="m155.3 206.3c-24.6-6.9-50.2-2.7-75.7-1.5s-61.8 5.9-72.4 13.8c-2.6 1.9-5.5 3.9-6.6 7-1.7 4.7 1.4 10.1 5.6 12.7 4.3 2.6 9.4 3.1 14.4 3.5 23 2 46 4 68.9 6 5 .4 10 .9 15 1.3 12.6 1.1 25.3 2.2 38 1.7 19.9-.8 39.6-5.7 57.7-14.2 3.2-1.5 6.8-3.9 6.8-7.4 0-3.4-3.3-5.6-6.3-7.2-14.2-7.5-29.5-12.6-45.3-15.3" fill="#efeff0"/><path d="m146.4.1h-100.8c-8.3 0-15.1 6.8-15.1 15.1v153.1h115.9v-153.1c0-8.3 7.9-15 16.2-15z" fill="#ecf4fb"/><path d="m176.6 31.9v-16.7c.5-7-6.3-15-14.7-15-7.2 0-15.5 6.6-15.5 15v31.8h45.3c-8.4 0-15.1-6.8-15.1-15.1z" fill="#b1c4d7"/><path d="m176.6 24v7.9c0 8.3 6.8 15.1 15.1 15.1s15.1-6.8 15.1-15.1v-7.9z" fill="#ccddef"/><path d="m30.6 31.9v-18.2c-1.1-8.6-8.5-13.3-14-13.5-8.1-.3-16.2 7.1-16.2 15v31.8h45.3c-8.4 0-15.1-6.8-15.1-15.1z" fill="url(#b)" opacity=".13" transform="translate(146)"/><path d="m.6 0v7.9c0 8.3 6.8 15.1 15.1 15.1s15.1-6.8 15.1-15.1v-7.9z" fill="url(#c)" opacity=".03" transform="translate(176 24)"/><path d="m103 227.3v.5z" fill="#162140"/><path d="m143.7 101.5 7.5.9-4.4-6.6c-.5-1.3-.7-2.6-.7-4-.1-1.3-1-4.1-2.6-4.9-2.7-1.5-4.6-.8-4.6-.8-.3 0-1.5.7-2.3-.9-.5-.9-2.1-2.9-2.6-2.5-.7.5.1 2.1.1 2.1l1.8 4.8s-.7 1.8.8 3.2c1.4 1.6 6.3 6.8 7 8.7" fill="#4bc3c9"/><path d="m156.1 141.4-16.1-40.6s-3.1-4.3 2.5-6.5c5.7-2.2 7.2-2 9.4 3.7s16.1 34.4 16.1 34.4z" fill="url(#d)"/><path d="m121.8 183.7h58.2v47.4h-58.2z" fill="#ccddef"/><path d="m163.1 115c-8.1 0-10.2-2.3-11-4s.2-6.9.2-6.9l-1.7-1.6c6.4-10.8 9.7-10.8 9.7-10.8s5-2.1 10 2.4c0 0 4.9 3.3 4.1 9.1 0 0-1.2 4.4-3.4 7.5.1.1-4.5 4.3-7.9 4.3z" fill="#4bc3c9"/><path d="m166.7 110.2-.4 3.8.5 11.2-8.8-.7.7-14.9z" fill="#4bc3c9"/><path d="m157.4 93.6c4.1-4.4 13.1-2.1 16.6 3.5 4.3 6.9-2.4 17.6-7.1 17-4.2-.6-1.5-4.7-1.5-4.7s3.3-4-.2-6.4c.1-.1-10-7-7.8-9.4zm16.5 71.8-23-2s-39.3 2-39.2 19c0 11.4 4.1 37.2 3.1 41.2-1.4.4-5.7-.4-6.7.7-.6.6-.3 1.7.6 1.7l13.2 2.5c.7-7.4-.1-28.3.6-43.3 14.7 0 54.8 6 51.7-13.5-.3-2-.3-4.1-.3-6.3z" fill="#1e3363" fill-rule="nonzero"/><path d="m171.9 94.4-6.7 14.2-2.3-.8 6.8-15z" fill="#fff"/><path d="m114.8 100.2 18.9-3.7 7.2 27.8-19 3.6z" fill="#b1c4d7"/><path d="m127.7 129.2-6.6 1.6-.5-2.5c-.9-1.2-2-2.2-3.1-3.2-1.1-.9-3.1-3.5-2.9-5.4.3-3.3 1.4-10.8 2.1-11.1.9-.4 1.8 1.4 1.8 1.4l3.3 4.6s2.1.6 2.5 2.8 2.1 9.9 3.4 11.8" fill="#4bc3c9"/><path d="m165.5 148.2c-10.4 6.1-31.9 12.5-40.3 5.8-2-1.6-4.6-6.3-4.6-6.5l-4.3-13.2c-.4-1.1 0-2.4.9-3.2 1.8-1.6 7.5-3.4 9.3-3.5 1.3 0 2.4.7 2.9 1.9l3.9 9.9c.3.8 1 1.5 1.8 1.7 8.4 2.7 19.6-9.3 19.6-9.3z" fill="#fc4042"/><path d="m174.2 171.5c-.3-1.9-.3-3.9-.3-6.1l-25.7-5.4-36.9 2.4c-12.9 0-12.2 20.3-12.2 20.3 1.3 22.8 1.1 40 1.6 44.5 0 .3-.1.6-.3.8-2.3 1.8-8.1 2.2-9.2 3.4-.4.4-.4.9-.1 1.3.2.2.4.4.7.4l15.1.3c2-.2 4.2-27.8 5.3-50.6 15.7 5 65.1 8.3 62-11.3z" fill="#1e3363"/><path d="m175.3 171.5s-5-42.6-5.7-49.6c0-.3-.3-.6-.6-.6-5-.4-12.1-.7-14.1-.7-.3 0-.6.2-.7.5l-9.3 38.7c0 .7.7.9 1.3 1.3-.1 0 29.8 21.6 29.1 10.4z" fill="#fc4042"/><path d="m100.8 227.2c0 .3-.1.6-.3.8-2.3 1.8-8.1 2.2-9.2 3.4-.4.4-.4.9-.1 1.3.2.2.4.4.7.4l15.1.3c.5 0 1-1.9 1.5-5" fill="#304575"/><path d="m165 104.1-2.8 5.5c0 .1-.5.6-1.1.3-.9-.6-2.1-1.3-2.9-1.8-.4-.3-1.5.4-1.8.6l-.2.1.2.2.1.1c1.7 1 3 1.8 3.7 2.2.4.2.8.4 1.2.4h.1c1 0 1.7-.6 2.2-1.2l2.9-5.6z" fill="#fff"/><circle cx="165.1" cy="105.7" fill="#fff" r="3.1"/><g transform="translate(43 46)"><path d="m.9 36.9c5.6-.1 6.9-21.6 12.3-21.7 6.4-.1 8.5 22.1 14.6 22 5.9-.1 7.1-26.4 13.3-26.6 2.9-.1 5.3 9.1 7.7 17.8 2.1 7.8 4.2 15.3 6.6 15.2 2.2 0 4-7.8 5.8-16.6 2.5-12.1 5-26.4 8.4-26.4 1.8 0 12.6 30 14.4 33.4 0 0 7.5 9.4 10-23.5" stroke="#4ec297" stroke-linecap="round" stroke-linejoin="round" stroke-width="1.2"/><g fill="#1d42dd"><circle cx="50.1" cy="33.9" opacity=".2" r="3"/><circle cx="50.1" cy="33.9" r="1.2"/><circle cx="84.1" cy="33.9" opacity=".2" r="3"/><circle cx="84.1" cy="33.9" r="1.2"/><circle cx="13.4" cy="15.2" opacity=".2" r="3"/><circle cx="13.4" cy="15.2" r="1.2"/></g></g><path d="m45.1 31.6h78.3m-78.3-8h78.3m-78.3 15.9h50" stroke="#006fde" stroke-linecap="round" stroke-linejoin="round" stroke-width="1.2"/><g transform="translate(0 60)"><path d="m74 39.8 4.9 4 1.6-2.6c1.1-.8 2.4-1.4 3.7-1.9 1.3-.4 3.8-2.2 4.2-4 .7-3.1-.5-4.9-.5-4.9-.1-.2-1.1-1.3.2-2.5.8-.8 2.3-2.9 1.7-3.4-.7-.6-2 .7-2 .7l-4.3 3.2s-2-.1-3 1.7c-1.1 2-4.8 8.4-6.5 9.7" fill="#4bc3c9"/><path d="m15.8 149.5.1 14.4c-.5 1.5-2.1 6.6-.1 6.6l14.4.4c.8 0 1.3-1 .7-1.6-.5-.4-1.3-.8-2.6-1.1-3.7-.7-5.4-4.6-5.4-4.6s-.7-4.3.6-13z" fill="#304575"/><path d="m15.2 166.6c-.4 1.9-.6 3.9.7 4l14.4.4c.8 0 1.3-1 .7-1.6-.5-.4-1.3-.8-2.6-1.1-1.2-.2-2.2-.8-3-1.5" fill="#304575"/><path d="m27.9.3s7.5-1.4 10.3 4.2c0 0 3.4 9.7-3.2 12.8z" fill="#162140"/><path d="m34.4 36.5-.5-12.7c7.6-1.4 8.2-4.6 8.5-6.4s-2-6.2-2-6.2l1.1-1.9c-8.7-8.2-11.7-7.4-11.7-7.4s-5.1-.7-8.6 4.8c0 0-3.7 4.3-1.4 9.4 0 0 2.2 3.7 5.1 6l-.2 3.7v10.8h9.7z" fill="#4bc3c9"/><path d="m44.3 151.7c-1.6 7.3-2 12-2 12 0 .1 1.7 4 5.4 4.6 1.3.2 2.1.6 2.6 1.1.6.6.2 1.6-.7 1.6l-14.4-.4c-2-.1-.4-5.2.1-6.6l1.2-15.1z" fill="#304575"/><path d="m34.6 166.6c-.4 1.9-.6 3.9.7 4l14.4.4c.8 0 1.3-1 .7-1.6-.5-.4-1.3-.8-2.6-1.1-1.2-.2-2.2-.8-3-1.5" fill="#304575"/><path d="m24.5 159.9c2.3-13 12.5-91.2 12.5-91.2-8.5 1.4-20.7 3.4-20.7 3.4-.2 0-.5 87.8-.5 87.8z" fill="#1e3363"/><path d="m46.2 160.2c1.7-13 4.9-38.6 5.1-41.4v-1.2l-8.1-49.7c0-.1-.1-.2-.2-.2l-26.7 4.3c-.2 0 17.7 36.4 21.3 45 .4 1 .6 2.1.6 3.2-.5 8.2-2.5 40.1-2.5 40.1h10.5z" fill="#1e3363"/><path d="m42.2 51.3s1.7 2.7 12.3 4.5c11 1.9 25.2-10.3 27.1-11.6s1.3-3.2 1.3-3.2-3.2-4.5-4.5-5.8-2.5-.5-2.5-.5-13.6 11.5-23.1 6.1c-5.9-3.4-13.5-6.9-15.3-7.1-5.3-.8-12.8-1.5-18.3-.9-1 .1-1.9.9-2.1 1.9-.3 1.6-3.4 36.6-3.4 36.6 0 .8.6 1.4 1.4 1.4l27.7-1.3c.7 0 1.3-.6 1.3-1.3l-1.8-16.2z" fill="url(#e)"/><path d="m21.3 40.7c9.9-5.5 10.5-39.7 10.5-39.7-9.7-2.6-16.3.5-17.2 8-.9 8.2-12 24-14.6 25.1.1-.1 6.2 14.9 21.3 6.6z" fill="#162140"/></g></g></svg>